# xmcd
#
# Track frame offsets:
# 150
# 17920
# 39822
# 61112
# 76145
# 94112
# 110180
# 127662
# 146492
# 162327
# 179627
# 206167
#
# Disc length: 2974 seconds
#
#
# Revision: 16
# Processed by: cddbd v1.5.2PL0 Copyright (c) Steve Scherf et al.
# Submitted via: FreeRIP 2.951 
#
DISCID=9c0b9c0c
DTITLE=Kenny Chesney - No Shoes, No Shirt, No Problems
DYEAR=2002
DGENRE=Country
TTITLE0=Young
TTITLE1=I Remember
TTITLE2=A Lot Of Things Different
TTITLE3=The Good Stuff
TTITLE4=Big Star
TTITLE5=On The Coast Of Somewhere Beautiful
TTITLE6=Never Gonna Feel That Way Again
TTITLE7=Dreams
TTITLE8=No Shoes, No Shirt, No Problems
TTITLE9=Live Those Songs
TTITLE10=One Step Up
TTITLE11=I Can't Go There (Acoustic Version)
EXTD=YEAR: 2002
EXTT0=
EXTT1=
EXTT2=
EXTT3=
EXTT4=
EXTT5=
EXTT6=
EXTT7=
EXTT8=
EXTT9=
EXTT10=
EXTT11=
PLAYORDER=
